<?xml version="1.0" encoding="UTF-8" standalone="no"?>
<svg width="56px" height="26px" viewBox="0 0 56 26" version="1.1" xmlns="http://www.w3.org/2000/svg" xmlns:xlink="http://www.w3.org/1999/xlink" xmlns:sketch="http://www.bohemiancoding.com/sketch/ns">
    <!-- Generator: sketchtool 3.4 (381) - http://www.bohemiancoding.com/sketch -->
    <title>Alura Logo</title>
    <desc>Created with sketchtool.</desc>
    <defs></defs>
    <g id="Page-1" stroke="none" stroke-width="1" fill="none" fill-rule="evenodd" sketch:type="MSPage">
        <g id="Footer---Light" sketch:type="MSArtboardGroup" transform="translate(-1021.000000, -10.000000)" fill="#191919">
            <path d="M1030.1,25.8870347 C1030.05758,26.1154757 1029.9303,26.302382 1029.73939,26.4062188 C1029.54848,26.530823 1029.37879,26.5931251 1029.20909,26.6554272 C1028.84848,26.7800314 1028.46667,26.9046356 1028.06364,27.0500071 C1027.63939,27.1953787 1027.25758,27.3407502 1026.91818,27.4445871 C1026.49394,27.5899586 1026.09091,27.7145628 1025.70909,27.8599344 C1025.43333,27.9845386 1025.15758,28.1299101 1024.90303,28.3375838 C1024.69091,28.5244901 1024.5,28.7529311 1024.30909,29.0436742 C1024.13939,29.3344173 1024.03333,29.7082299 1024.03333,30.1443446 C1024.03333,31.016574 1024.24545,31.6811297 1024.6697,32.096477 C1025.09394,32.5325916 1025.87879,32.7402653 1027.04545,32.7402653 C1028.23333,32.7402653 1029.03939,32.5118243 1029.46364,32.0549422 C1029.88788,31.5980602 1030.1,30.9542719 1030.1,30.1235772 L1030.1,25.8870347 L1030.1,25.8870347 Z M1027.04545,16.6870917 C1029.12424,16.6870917 1030.65152,17.0816717 1031.62727,17.8915989 C1032.60303,18.6807588 1033.09091,19.6983597 1033.09091,20.9028669 L1033.09091,22.5642562 L1033.09091,30.165112 L1033.09091,31.1619455 C1033.09091,31.5772928 1033.00606,32.0341749 1032.85758,32.5325916 C1032.70909,33.0310084 1032.41212,33.4878905 1031.94545,33.9032378 C1031.5,34.3185851 1030.88485,34.6716303 1030.1,34.941606 C1029.31515,35.2115818 1028.29697,35.3569534 1027.04545,35.3569534 C1025.79394,35.3569534 1024.77576,35.2115818 1023.99091,34.941606 C1023.20606,34.6716303 1022.59091,34.3185851 1022.14545,33.9032378 C1021.7,33.4878905 1021.40303,33.0310084 1021.23333,32.5325916 C1021.08485,32.0341749 1021,31.5772928 1021,31.1619455 L1021,29.5213236 C1021,28.6490943 1021.23333,27.839167 1021.7,27.1330766 C1022.16667,26.4062188 1022.82424,25.907802 1023.67273,25.5962915 C1024.09697,25.45092 1024.58485,25.3055484 1025.13636,25.1186421 C1025.68788,24.9317358 1026.19697,24.7448296 1026.70606,24.5786906 C1027.21515,24.4125517 1027.66061,24.2464128 1028.04242,24.1010412 C1028.42424,23.9556697 1028.65758,23.8726002 1028.74242,23.8518328 C1028.82727,23.8102981 1028.95455,23.747996 1029.12424,23.6649265 C1029.27273,23.5818571 1029.42121,23.4572529 1029.5697,23.291114 C1029.71818,23.124975 1029.84545,22.9380687 1029.95152,22.7303951 C1030.05758,22.5227214 1030.12121,22.2735131 1030.12121,22.0035373 L1030.12121,21.3389816 C1030.12121,21.1105406 1030.07879,20.8613322 1029.97273,20.6328912 C1029.88788,20.3836828 1029.71818,20.1552418 1029.48485,19.9475681 C1029.25152,19.7398945 1028.93333,19.5737555 1028.55152,19.4491513 C1028.1697,19.3245471 1027.66061,19.262245 1027.08788,19.262245 C1025.9,19.262245 1025.11515,19.4906861 1024.69091,19.9683355 C1024.3303,20.3836828 1024.11818,20.9028669 1024.07576,21.4843532 C1024.07576,21.6089574 1023.9697,21.6920268 1023.84242,21.6920268 L1021.25455,21.7335615 C1021.12727,21.7335615 1021.02121,21.6297247 1021.02121,21.5051205 L1021.02121,20.9028669 C1021.02121,20.3213807 1021.12727,19.7814292 1021.36061,19.262245 C1021.59394,18.7430609 1021.95455,18.3069462 1022.44242,17.9331336 C1022.9303,17.5593211 1023.56667,17.2478106 1024.3303,17.0401369 C1025.07273,16.7909285 1025.98485,16.6870917 1027.04545,16.6870917 L1027.04545,16.6870917 Z M1073.94545,25.8870347 C1073.90303,26.1154757 1073.77576,26.302382 1073.58485,26.4062188 C1073.39394,26.530823 1073.22424,26.5931251 1073.05455,26.6554272 C1072.69394,26.7800314 1072.31212,26.9046356 1071.90909,27.0500071 C1071.48485,27.1953787 1071.10303,27.3407502 1070.76364,27.4445871 C1070.33939,27.5899586 1069.93636,27.7145628 1069.55455,27.8599344 C1069.27879,27.9845386 1069.00303,28.1299101 1068.74848,28.3375838 C1068.53636,28.5244901 1068.34545,28.7529311 1068.15455,29.0436742 C1067.98485,29.3344173 1067.87879,29.7082299 1067.87879,30.1443446 C1067.87879,31.016574 1068.09091,31.6811297 1068.51515,32.096477 C1068.93939,32.5325916 1069.72424,32.7402653 1070.89091,32.7402653 C1072.07879,32.7402653 1072.88485,32.5118243 1073.30909,32.0549422 C1073.73333,31.5980602 1073.94545,30.9542719 1073.94545,30.1235772 L1073.94545,25.8870347 Z M1070.89091,16.6870917 C1072.9697,16.6870917 1074.49697,17.0816717 1075.47273,17.8915989 C1076.44848,18.6807588 1076.93636,19.6983597 1076.93636,20.9028669 L1076.93636,22.5642562 L1076.93636,30.165112 L1076.93636,31.1619455 C1076.93636,31.5772928 1076.85152,32.0341749 1076.70303,32.5325916 C1076.55455,33.0310084 1076.25758,33.4878905 1075.79091,33.9032378 C1075.34545,34.3185851 1074.7303,34.6716303 1073.94545,34.941606 C1073.16061,35.2115818 1072.14242,35.3569534 1070.89091,35.3569534 C1069.63939,35.3569534 1068.62121,35.2115818 1067.83636,34.941606 C1067.05152,34.6716303 1066.43636,34.3185851 1065.99091,33.9032378 C1065.54545,33.4878905 1065.24848,33.0310084 1065.07879,32.5325916 C1064.9303,32.0341749 1064.84545,31.5772928 1064.84545,31.1619455 L1064.84545,29.5213236 C1064.84545,28.6490943 1065.07879,27.839167 1065.54545,27.1330766 C1066.01212,26.4062188 1066.6697,25.907802 1067.51818,25.5962915 C1067.94242,25.45092 1068.4303,25.3055484 1068.98182,25.1186421 C1069.53333,24.9317358 1070.04242,24.7448296 1070.55152,24.5786906 C1071.06061,24.4125517 1071.50606,24.2464128 1071.88788,24.1010412 C1072.2697,23.9556697 1072.50303,23.8726002 1072.58788,23.8518328 L1072.9697,23.6649265 C1073.11818,23.5818571 1073.26667,23.4572529 1073.41515,23.291114 C1073.56364,23.124975 1073.69091,22.9380687 1073.79697,22.7303951 C1073.90303,22.5227214 1073.96667,22.2735131 1073.96667,22.0035373 L1073.96667,21.3389816 C1073.96667,21.1105406 1073.92424,20.8613322 1073.81818,20.6328912 C1073.73333,20.3836828 1073.56364,20.1552418 1073.3303,19.9475681 C1073.09697,19.7398945 1072.77879,19.5737555 1072.39697,19.4491513 C1072.01515,19.3245471 1071.50606,19.262245 1070.93333,19.262245 C1069.74545,19.262245 1068.96061,19.4906861 1068.53636,19.9683355 C1068.17576,20.3836828 1067.96364,20.9028669 1067.92121,21.4843532 C1067.92121,21.6089574 1067.81515,21.6920268 1067.68788,21.6920268 L1065.12121,21.6920268 C1064.99394,21.6920268 1064.88788,21.58819 1064.88788,21.4635858 L1064.88788,20.8613322 C1064.88788,20.279846 1064.99394,19.7398945 1065.22727,19.2207103 C1065.46061,18.7015262 1065.82121,18.2654115 1066.30909,17.8915989 C1066.79697,17.5177863 1067.43333,17.2062759 1068.19697,16.9986022 C1068.91818,16.7909285 1069.8303,16.6870917 1070.89091,16.6870917 L1070.89091,16.6870917 Z M1061.79091,16.7701612 L1063.48788,16.7701612 C1063.63636,16.7701612 1063.74242,16.9155327 1063.7,17.0609043 L1063.12727,19.2207103 C1063.10606,19.3245471 1063,19.3868492 1062.91515,19.3868492 L1061.72727,19.3868492 C1061.09091,19.3868492 1060.58182,19.4699187 1060.17879,19.6360576 C1059.79697,19.8021965 1059.47879,19.9891028 1059.26667,20.2175439 C1059.05455,20.4459849 1058.92727,20.6744259 1058.86364,20.9028669 C1058.8,21.1520753 1058.77879,21.3805163 1058.77879,21.58819 L1058.77879,21.8997005 L1058.77879,34.941606 C1058.77879,35.0662102 1058.67273,35.1700471 1058.54545,35.1700471 L1056,35.1700471 C1055.87273,35.1700471 1055.76667,35.0662102 1055.76667,34.941606 L1055.76667,21.7750963 L1055.76667,20.9859364 C1055.76667,20.736728 1055.80909,20.3629154 1055.91515,19.885266 C1056,19.4076166 1056.25455,18.9507346 1056.65758,18.4730852 C1057.06061,18.0162031 1057.65455,17.6008558 1058.46061,17.2685779 C1059.26667,16.9363001 1060.3697,16.7701612 1061.79091,16.7701612 L1061.79091,16.7701612 Z M1053.22121,30.7050635 L1053.22121,31.3280844 C1053.22121,31.5980602 1053.17879,31.9718728 1053.07273,32.4495222 C1052.98788,32.9064042 1052.73333,33.3840536 1052.3303,33.8409357 C1051.92727,34.2978177 1051.33333,34.713165 1050.52727,35.0454429 C1049.72121,35.3777207 1048.61818,35.5438596 1047.19697,35.5438596 C1045.77576,35.5438596 1044.67273,35.3777207 1043.86667,35.0454429 C1043.06061,34.713165 1042.46667,34.3185851 1042.06364,33.8409357 C1041.66061,33.3840536 1041.40606,32.9064042 1041.32121,32.4287548 C1041.23636,31.9511054 1041.17273,31.5980602 1041.17273,31.3280844 L1041.17273,30.9542719 L1041.17273,17.3516474 C1041.17273,17.2270432 1041.27879,17.1232064 1041.40606,17.1232064 L1043.9303,17.1232064 C1044.05758,17.1232064 1044.16364,17.2270432 1044.16364,17.3516474 L1044.16364,30.4350877 C1044.16364,30.8712024 1044.22727,31.1827129 1044.29091,31.4319213 C1044.35455,31.6811297 1044.48182,31.930338 1044.67273,32.1380117 C1044.86364,32.3664527 1045.16061,32.553359 1045.56364,32.6987306 C1045.94545,32.8441021 1046.47576,32.9271716 1047.13333,32.9271716 C1047.81212,32.9271716 1048.36364,32.8441021 1048.76667,32.6987306 C1049.1697,32.553359 1049.46667,32.3664527 1049.67879,32.1587791 C1049.89091,31.9511054 1050.03939,31.7226644 1050.10303,31.473456 C1050.16667,31.2242476 1050.25152,31.016574 1050.25152,30.4143204 L1050.25152,17.33088 C1050.25152,17.2062759 1050.35758,17.102439 1050.48485,17.102439 L1053.00909,17.102439 C1053.13636,17.102439 1053.24242,17.2062759 1053.24242,17.33088 L1053.24242,30.7050635 L1053.22121,30.7050635 Z M1035.84848,10.1038368 L1038.37273,10.1038368 C1038.5,10.1038368 1038.60606,10.2076737 1038.60606,10.3322778 L1038.60606,35.0662102 C1038.60606,35.1908144 1038.5,35.2946513 1038.37273,35.2946513 L1035.84848,35.2946513 C1035.72121,35.2946513 1035.61515,35.1908144 1035.61515,35.0662102 L1035.61515,10.3322778 C1035.63636,10.2076737 1035.72121,10.1038368 1035.84848,10.1038368 L1035.84848,10.1038368 Z" id="Alura-Logo" sketch:type="MSShapeGroup"></path>
        </g>
    </g>
</svg>