<?xml version="1.0" encoding="UTF-8" standalone="no"?>
<svg width="101px" height="21px" viewBox="0 0 101 21" version="1.1" xmlns="http://www.w3.org/2000/svg" xmlns:xlink="http://www.w3.org/1999/xlink" xmlns:sketch="http://www.bohemiancoding.com/sketch/ns">
    <!-- Generator: sketchtool 3.4 (381) - http://www.bohemiancoding.com/sketch -->
    <title>Caelum Logo</title>
    <desc>Created with sketchtool.</desc>
    <defs></defs>
    <g id="Page-1" stroke="none" stroke-width="1" fill="none" fill-rule="evenodd" sketch:type="MSPage">
        <g id="Footer---Light" sketch:type="MSArtboardGroup" transform="translate(-845.000000, -14.000000)" fill="#000000">
            <path d="M890.45021,26.40974 L890.45,29.35625 C889.833058,29.90561 889.227058,30.32981 888.635367,30.62948 C888.043465,30.92894 887.341094,31.07573 886.524677,31.07573 C885.10731,31.07573 884.400731,30.39302 884.400731,29.02823 C884.400731,28.16345 884.742658,27.56012 885.426513,27.21047 C885.776856,27.02798 886.109104,26.87405 886.425992,26.75771 C887.02631,26.52482 888.365612,26.40995 890.45,26.40995 L890.45021,26.40974 Z M901.043427,21.34349 C903.044069,21.34349 904.041865,22.71101 904.041865,25.34 L897.538727,25.34 C897.722,22.71101 898.892758,21.34349 901.043427,21.34349 L901.043427,21.34349 Z M929.797917,19.65026 C929.081658,19.65026 928.745833,19.82897 928.745833,20.195 L928.745833,32.34875 C928.745833,32.71499 929.081448,32.9 929.797917,32.9 C930.514385,32.9 930.85021,32.7152 930.85,32.34875 L930.85,23.19401 L931.224962,22.7675 C931.458315,22.46804 931.827596,22.17803 932.336173,21.89474 C932.84496,21.61208 933.426762,21.46823 934.085367,21.46823 C934.74376,21.46823 935.274852,21.68516 935.683271,22.11797 C936.091479,22.55099 936.320833,23.14067 936.320833,23.88995 L936.320833,32.34896 C936.320833,32.7152 936.656448,32.9 937.372917,32.9 C938.089385,32.9 938.425,32.71541 938.425,32.34896 C938.400381,29.3069 938.458246,26.22116 938.425,23.19422 C939.441733,22.04636 940.415752,21.46823 941.44995,21.46823 C942.233331,21.46823 942.829442,21.68516 943.238492,22.11797 C943.6467,22.55099 943.895833,23.14067 943.895833,23.88995 L943.895833,32.34896 C943.895833,32.7152 944.182421,32.9 944.902046,32.9 C945.621671,32.9 946,32.71541 946,32.34896 L946,23.69297 C946,22.89455 945.829352,22.21142 945.579377,21.64547 C945.329192,21.08015 944.99021,20.65574 944.573375,20.37224 C943.82324,19.88966 942.979258,19.65026 942.028596,19.65026 C940.544737,19.65026 939.217219,20.33654 938.050458,21.7175 C937.483385,20.33654 936.290533,19.65026 934.473375,19.65026 C933.099985,19.65026 931.894087,20.20508 930.85,21.32375 L930.85,20.195 C930.85,19.82897 930.514175,19.65026 929.797917,19.65026 L929.797917,19.65026 Z M916.33146,19.63052 C915.615202,19.63052 915.279167,19.81616 915.279167,20.18177 L915.279167,28.84427 C915.279167,30.10931 915.849606,31.09568 916.574702,31.81052 C917.300008,32.52641 918.355458,32.88677 919.730952,32.88677 C921.03806,32.88677 922.201454,32.3204 923.275,31.19354 L923.275,32.34854 C923.275,32.71415 923.629342,32.9 924.327083,32.9 C925.024825,32.9 925.379167,32.73599 925.379167,32.40755 L925.379167,20.18156 C925.379167,19.81595 925.057019,19.63031 924.34034,19.63031 C923.623871,19.63031 923.275,19.81595 923.275,20.18156 L923.275,29.31656 C922.374837,30.48185 921.338956,31.06229 920.138529,31.06229 C919.321481,31.06229 918.692756,30.84998 918.251302,30.42578 C917.809427,30.00137 917.383333,29.40665 917.383333,28.64078 L917.383333,20.18177 C917.383333,19.81616 917.047508,19.63052 916.33125,19.63052 L916.33146,19.63052 Z M900.964521,19.54526 C899.146942,19.54526 897.746198,20.12318 896.76271,21.27125 C895.778802,22.41932 895.289583,24.10331 895.289583,26.32448 C895.289583,28.54565 895.788692,30.19772 896.789013,31.27922 C897.789333,32.36114 899.334002,32.89979 901.418179,32.9 C902.601773,32.9 903.64586,32.7152 904.55465,32.34896 C905.463229,31.98314 905.915835,31.63853 905.915835,31.30547 C905.915835,31.13915 905.815046,30.88379 905.606733,30.55073 C905.398,30.21809 905.207573,30.05198 905.041133,30.05198 C905.007467,30.05198 904.831558,30.13535 904.515092,30.30146 C903.56485,30.83423 902.525181,31.10219 901.391667,31.10219 C900.157573,31.10219 899.233423,30.77984 898.616692,30.13094 C897.99954,29.48204 897.638465,28.61159 897.538306,27.23 L905.442187,27.23 C906.026304,27.03932 906.237562,26.67854 906.270808,26.06198 C906.270808,21.71918 904.498679,19.54547 900.96431,19.54547 L900.964521,19.54526 Z M887.898908,19.54526 C886.531831,19.54526 885.362967,19.72544 884.387475,20.08349 C883.411983,20.44133 882.921081,20.79749 882.921081,21.14672 C882.921081,21.31283 883.027763,21.56168 883.236706,21.89495 C883.444808,22.22801 883.628502,22.3937 883.795573,22.3937 C883.828819,22.3937 884.024085,22.30109 884.374219,22.11797 C885.390952,21.60242 886.5009,21.34349 887.701538,21.34349 C889.535319,21.34349 890.45,22.03943 890.45,23.43698 L890.45,24.61172 C888.999598,24.64511 887.704483,24.7331 886.570548,24.87422 C885.436613,25.01597 884.421773,25.41812 883.512983,26.07521 C882.604194,26.73272 882.145275,27.71405 882.145275,29.02844 C882.145275,30.34325 882.538544,31.3166 883.322346,31.9487 C884.105727,32.58164 885.14224,32.9 886.425992,32.9 C888.008325,32.9 889.347838,32.33846 890.45,31.2137 L890.45,32.34896 C890.45,32.71478 890.785825,32.90147 891.502083,32.9 C892.218342,32.89853 892.554377,32.71499 892.554167,32.34896 L892.554167,23.46323 C892.554377,22.23179 892.119235,21.27272 891.252319,20.58224 C890.385192,19.89197 889.265775,19.54526 887.898698,19.54526 L887.898908,19.54526 Z M875.753869,19.54526 C874.169852,19.54526 872.830129,19.98878 871.72965,20.87099 C871.145954,21.35399 870.683669,22.04636 870.342162,22.94474 C870.000446,23.84333 869.829167,24.91244 869.829167,26.16047 C869.829167,28.52339 870.337744,30.24056 871.354687,31.30547 C872.371421,32.37038 873.91651,32.9 875.983854,32.9 C877.034044,32.9 877.948725,32.7614 878.732527,32.48672 C879.515908,32.21225 879.909598,31.92644 879.909598,31.62698 C879.909598,31.42727 879.807335,31.16393 879.607019,30.83948 C879.406912,30.51482 879.221115,30.35375 879.054675,30.35375 C879.037842,30.35375 879.001229,30.36824 878.942944,30.39323 C878.884448,30.41801 878.83521,30.43586 878.785131,30.45224 C877.918215,30.88505 876.974496,31.10198 875.957552,31.10198 C874.557019,31.10198 873.557329,30.70949 872.965637,29.92724 C872.373525,29.14541 871.933333,27.87848 871.933333,26.11448 C871.933333,22.93655 873.28989,21.34349 875.707787,21.34349 C876.624573,21.34349 877.529785,21.54152 878.430158,21.94073 C878.463404,21.95774 878.497281,21.9716 878.522321,21.98021 L878.621006,22.01969 C878.662458,22.03649 878.689602,22.04594 878.706435,22.04594 C878.856463,22.04594 879.02711,21.87521 879.219431,21.53396 C879.41091,21.19292 879.508754,20.91026 879.508754,20.69396 C879.508754,20.3945 879.124744,20.13305 878.357985,19.89995 C877.590806,19.66727 876.720733,19.54547 875.754079,19.54547 L875.753869,19.54526 Z M862.10961,16.1 C863.347281,16.1 863.9375,16.77494 863.9375,18.00974 L863.9375,30.99047 C863.9375,32.22527 863.347702,32.9 862.10961,32.9 L849.103125,32.9 C847.865665,32.9 847.104167,32.22527 847.104167,30.99047 C847.126892,23.40506 854.2112,16.0769 862.10961,16.10021 L862.10961,16.1 Z M849.096602,16.1 L849.622644,17.465 L851.089038,17.54375 L849.951525,18.46901 L850.326277,19.88 L849.096602,19.08599 L847.866927,19.88 L848.241679,18.46901 L847.104167,17.54375 L848.57056,17.465 L849.096602,16.1 Z M909.597917,14 C908.881658,14 908.545833,14.18543 908.545833,14.55125 L908.545833,29.45474 C908.545833,30.73637 908.873662,31.63139 909.532267,32.13875 C910.19066,32.64653 910.940585,32.9 911.774467,32.9 C912.991096,32.9 913.595833,32.65115 913.595833,32.15177 C913.595833,31.98566 913.544702,31.75109 913.444544,31.44302 C913.344385,31.13516 913.219819,30.97703 913.069792,30.97703 C913.036335,30.97703 912.921448,31.00118 912.721342,31.04276 C912.521235,31.08455 912.28136,31.10177 911.997929,31.10177 C911.097767,31.10177 910.65,30.48941 910.65,29.25776 L910.65,14.55125 C910.65,14.18543 910.313965,14 909.597917,14 L909.597917,14 Z M848.366667,14 C846.505531,14 845,15.50276 845,17.36 L845,31.64 C845,33.49745 846.505531,35 848.366667,35 L862.675,35 C864.535925,35 866.041667,33.49745 866.041667,31.64 L866.041667,17.36 C866.041667,15.50255 864.535925,14 862.675,14 L848.366667,14 Z" id="Caelum-Logo" sketch:type="MSShapeGroup"></path>
        </g>
    </g>
</svg>