<svg width="16px" height="16px" viewBox="0 0 16 16" version="1.1" xmlns="http://www.w3.org/2000/svg">
	<title>Busca</title>
	<path fill="#FFF" d="M15.726035,14.2078269 L11.8285526,10.3098769 C12.5932693,9.24114444 13.0488252,7.93621515 13.0488252,6.52464647 C13.0488252,2.92697044 10.1223225,-1.15463195e-14 6.52464647,-1.15463195e-14 C2.92697044,-1.15463195e-14 0,2.92697044 0,6.52464647 C0,10.1223225 2.92697044,13.0488252 6.52464647,13.0488252 C8.0363065,13.0488252 9.42636021,12.5273212 10.5339131,11.6611101 L14.4033325,15.5305295 C14.585742,15.7134067 14.8252128,15.8046114 15.0646837,15.8046114 C15.3041546,15.8046114 15.5436255,15.7134067 15.726035,15.5305295 C16.0913217,15.1652428 16.0913217,14.5731136 15.726035,14.2078269 L15.726035,14.2078269 Z M1.87086637,6.52464647 C1.87086637,3.95828553 3.95828553,1.87086637 6.52464647,1.87086637 C9.0905397,1.87086637 11.1779589,3.95828553 11.1779589,6.52464647 C11.1779589,9.0905397 9.0905397,11.1779589 6.52464647,11.1779589 C3.95828553,11.1779589 1.87086637,9.0905397 1.87086637,6.52464647 L1.87086637,6.52464647 Z"></path>
</svg>
