<?xml version="1.0" encoding="UTF-8" standalone="no"?>
<svg width="116px" height="32px" viewBox="0 0 116 32" version="1.1" xmlns="http://www.w3.org/2000/svg" xmlns:xlink="http://www.w3.org/1999/xlink" xmlns:sketch="http://www.bohemiancoding.com/sketch/ns">
    <!-- Generator: Sketch 3.5.1 (25234) - http://www.bohemiancoding.com/sketch -->
    <title>Slice 2</title>
    <desc>Created with Sketch.</desc>
    <defs></defs>
    <g id="Page-1" stroke="none" stroke-width="1" fill="none" fill-rule="evenodd" sketch:type="MSPage">
        <path d="M10.4204102,14.7983398 L14.8945312,14.7983398 L14.8945312,20.3349609 C13.7213483,20.8330103 12.4015373,21.0820312 10.9350586,21.0820312 C9.02033548,21.0820312 7.55249534,20.5411024 6.53149414,19.4592285 C5.51049294,18.3773546 5,16.8458758 5,14.8647461 C5,13.6306904 5.2531713,12.5363817 5.75952148,11.5817871 C6.26587167,10.6271925 6.99079932,9.8898138 7.93432617,9.36962891 C8.87785302,8.84944401 9.96109415,8.58935547 11.184082,8.58935547 C12.5066798,8.58935547 13.6936796,8.83284262 14.7451172,9.31982422 L14.4047852,10.0834961 C13.3533476,9.59651449 12.2631892,9.35302734 11.1342773,9.35302734 C9.53498549,9.35302734 8.26636211,9.84691889 7.32836914,10.8347168 C6.39037617,11.8225147 5.92138672,13.1547768 5.92138672,14.831543 C5.92138672,16.657724 6.36685752,18.0314895 7.2578125,18.9528809 C8.14876748,19.8742722 9.4575109,20.3349609 11.184082,20.3349609 C12.3019262,20.3349609 13.2509727,20.1772477 14.03125,19.8618164 L14.03125,15.5952148 L10.4204102,15.5952148 L10.4204102,14.7983398 Z M20.9083549,11.71875 C21.2901928,11.71875 21.6996939,11.7574866 22.1368706,11.8349609 L21.9791557,12.6235352 C21.6028518,12.5294592 21.2127189,12.4824219 20.8087456,12.4824219 C20.039536,12.4824219 19.4086829,12.808916 18.9161674,13.4619141 C18.423652,14.1149121 18.1773979,14.9394481 18.1773979,15.9355469 L18.1773979,20.9160156 L17.3556206,20.9160156 L17.3556206,11.8930664 L18.0528862,11.8930664 L18.135894,13.5200195 L18.1939995,13.5200195 C18.5647696,12.8559537 18.9604362,12.3897312 19.3810112,12.1213379 C19.8015862,11.8529446 20.3106957,11.71875 20.9083549,11.71875 L20.9083549,11.71875 Z M24.3074325,11.8930664 L24.3074325,17.7368164 C24.3074325,18.644373 24.4983486,19.3042785 24.8801864,19.7165527 C25.2620243,20.1288269 25.8541408,20.3349609 26.6565536,20.3349609 C27.7301267,20.3349609 28.5200765,20.0638048 29.0264267,19.5214844 C29.5327769,18.979164 29.7859482,18.096523 29.7859482,16.8735352 L29.7859482,11.8930664 L30.5994247,11.8930664 L30.5994247,20.9160156 L29.9021591,20.9160156 L29.752745,19.6708984 L29.7029403,19.6708984 C29.1163489,20.6116583 28.0732278,21.0820312 26.5735458,21.0820312 C24.5204757,21.0820312 23.493956,19.9835722 23.493956,17.7866211 L23.493956,11.8930664 L24.3074325,11.8930664 Z M37.1029945,21.0820312 C35.7139902,21.0820312 34.701305,20.5618542 34.0649086,19.5214844 L34.0068031,19.5214844 L34.0317054,20.21875 C34.053841,20.6282573 34.0649086,21.076495 34.0649086,21.5634766 L34.0649086,25 L33.2431312,25 L33.2431312,11.8930664 L33.9403968,11.8930664 L34.0981117,13.1796875 L34.1479164,13.1796875 C34.7677111,12.2057243 35.7582611,11.71875 37.1195961,11.71875 C38.3370501,11.71875 39.2653448,12.118567 39.9045082,12.9182129 C40.5436715,13.7178588 40.8632484,14.88134 40.8632484,16.4086914 C40.8632484,17.8917717 40.5270701,19.0414184 39.8547035,19.857666 C39.1823368,20.6739136 38.2651097,21.0820312 37.1029945,21.0820312 L37.1029945,21.0820312 Z M37.0863929,20.3515625 C38.0105512,20.3515625 38.7257947,20.008467 39.2321449,19.3222656 C39.7384951,18.6360643 39.9916664,17.6759502 39.9916664,16.4418945 C39.9916664,13.7911651 39.0343192,12.4658203 37.1195961,12.4658203 C36.0681585,12.4658203 35.2961936,12.7549613 34.8036781,13.333252 C34.3111626,13.9115426 34.0649086,14.8536719 34.0649086,16.159668 L34.0649086,16.425293 C34.0649086,17.8364328 34.3014785,18.8435842 34.7746254,19.4467773 C35.2477723,20.0499705 36.0183537,20.3515625 37.0863929,20.3515625 L37.0863929,20.3515625 Z M50.446408,16.3920898 C50.446408,17.8641024 50.089478,19.0137491 49.3756073,19.8410645 C48.6617365,20.6683798 47.6767203,21.0820312 46.4205291,21.0820312 C45.629184,21.0820312 44.9319254,20.8911152 44.3287323,20.5092773 C43.7255391,20.1274395 43.2634669,19.5795934 42.9425018,18.8657227 C42.6215366,18.1518519 42.4610565,17.3273159 42.4610565,16.3920898 C42.4610565,14.9200773 42.8179865,13.7731975 43.5318573,12.951416 C44.245728,12.1296346 45.2252104,11.71875 46.4703338,11.71875 C47.7099233,11.71875 48.6824885,12.1351684 49.3880584,12.9680176 C50.0936284,13.8008668 50.446408,14.9422128 50.446408,16.3920898 L50.446408,16.3920898 Z M43.3243377,16.3920898 C43.3243377,17.6316794 43.5968773,18.5987107 44.1419647,19.2932129 C44.687052,19.9877151 45.4576335,20.3349609 46.4537323,20.3349609 C47.449831,20.3349609 48.2204125,19.9877151 48.7654998,19.2932129 C49.3105872,18.5987107 49.5831268,17.6316794 49.5831268,16.3920898 C49.5831268,15.1469664 49.3078203,14.1813185 48.757199,13.4951172 C48.2065778,12.8089158 47.4332294,12.4658203 46.4371307,12.4658203 C45.441032,12.4658203 44.6732174,12.8075324 44.1336639,13.4909668 C43.5941104,14.1744012 43.3243377,15.1414325 43.3243377,16.3920898 L43.3243377,16.3920898 Z M61.9926101,9.36962891 C60.4707926,9.36962891 59.2727251,9.8566032 58.3983718,10.8305664 C57.5240185,11.8045296 57.0868484,13.1381751 57.0868484,14.831543 C57.0868484,16.563648 57.4991164,17.9083611 58.3236648,18.8657227 C59.1482132,19.8230842 60.3269123,20.3017578 61.8597976,20.3017578 C62.8780319,20.3017578 63.8132439,20.1717135 64.6654617,19.9116211 L64.6654617,20.6586914 C63.8630488,20.9409194 62.8614312,21.0820312 61.6605788,21.0820312 C59.9561432,21.0820312 58.614197,20.5314183 57.6346999,19.4301758 C56.6552029,18.3289333 56.1654617,16.7905372 56.1654617,14.8149414 C56.1654617,13.5808858 56.3992647,12.4934943 56.8668777,11.5527344 C57.3344907,10.6119745 58.0068472,9.88566337 58.8839675,9.3737793 C59.7610878,8.86189523 60.7806902,8.60595703 61.9428054,8.60595703 C63.1270561,8.60595703 64.1867786,8.82730898 65.1220046,9.27001953 L64.7816726,10.0336914 C63.8962515,9.59098086 62.9665733,9.36962891 61.9926101,9.36962891 L61.9926101,9.36962891 Z M72.2647346,20.9160156 L72.057215,19.4882812 L71.9908088,19.4882812 C71.5370305,20.0693388 71.0708079,20.4802234 70.5921271,20.7209473 C70.1134464,20.9616711 69.5476154,21.0820312 68.8946174,21.0820312 C68.0091963,21.0820312 67.3202383,20.8551455 66.8277228,20.4013672 C66.3352074,19.9475889 66.0889533,19.3195027 66.0889533,18.5170898 C66.0889533,17.6372026 66.4555675,16.9537785 67.1888068,16.4667969 C67.9220462,15.9798153 68.9831521,15.7224936 70.3721564,15.6948242 L72.0904182,15.6450195 L72.0904182,15.0473633 C72.0904182,14.1896116 71.9161035,13.5421571 71.5674689,13.1049805 C71.2188344,12.6678038 70.6571538,12.4492188 69.8824103,12.4492188 C69.0467942,12.4492188 68.1807547,12.6816383 67.2842658,13.1464844 L66.9771369,12.4326172 C67.9677018,11.9677711 68.9471842,11.7353516 69.9156135,11.7353516 C70.9061783,11.7353516 71.6463239,11.9926732 72.1360725,12.5073242 C72.625821,13.0219752 72.8706916,13.8243761 72.8706916,14.9145508 L72.8706916,20.9160156 L72.2647346,20.9160156 Z M68.9444221,20.3349609 C69.9073175,20.3349609 70.6668314,20.0596544 71.2229865,19.5090332 C71.7791416,18.958412 72.057215,18.1933643 72.057215,17.2138672 L72.057215,16.3256836 L70.4800666,16.3920898 C69.2128077,16.4529625 68.309415,16.6507959 67.7698615,16.9855957 C67.230308,17.3203956 66.9605353,17.8419561 66.9605353,18.550293 C66.9605353,19.1147489 67.1334666,19.5533025 67.4793342,19.8659668 C67.8252018,20.1786311 68.3135595,20.3349609 68.9444221,20.3349609 L68.9444221,20.3349609 Z M79.0588317,21.0820312 C77.7473017,21.0820312 76.7249324,20.6780639 75.991693,19.8701172 C75.2584537,19.0621704 74.8918395,17.9305086 74.8918395,16.4750977 C74.8918395,15.0362884 75.2460026,13.8838748 75.9543395,13.0178223 C76.6626764,12.1517698 77.6172567,11.71875 78.818109,11.71875 C79.8806143,11.71875 80.7189849,12.0895145 81.3332458,12.8310547 C81.9475066,13.5725949 82.2546325,14.5797462 82.2546325,15.8525391 L82.2546325,16.5166016 L75.7551208,16.5166016 C75.7661885,17.7561911 76.0553295,18.7024707 76.6225524,19.3554688 C77.1897753,20.0084668 78.0018603,20.3349609 79.0588317,20.3349609 C79.5734827,20.3349609 80.0258708,20.2989912 80.4160094,20.2270508 C80.8061481,20.1551103 81.3000396,20.000164 81.8976989,19.762207 L81.8976989,20.5092773 C81.3885818,20.7306326 80.9182088,20.8814286 80.4865661,20.9616699 C80.0549233,21.0419112 79.5790166,21.0820312 79.0588317,21.0820312 L79.0588317,21.0820312 Z M78.818109,12.4492188 C77.9492896,12.4492188 77.2520309,12.7355928 76.7263122,13.3083496 C76.2005934,13.8811064 75.8934676,14.7070259 75.8049254,15.7861328 L81.3830504,15.7861328 C81.3830504,14.7402291 81.1561647,13.9226104 80.7023864,13.333252 C80.2486081,12.7438935 79.6205219,12.4492188 78.818109,12.4492188 L78.818109,12.4492188 Z M85.1888663,20.9160156 L84.367089,20.9160156 L84.367089,8 L85.1888663,8 L85.1888663,20.9160156 Z M88.54644,11.8930664 L88.54644,17.7368164 C88.54644,18.644373 88.7373561,19.3042785 89.1191939,19.7165527 C89.5010318,20.1288269 90.0931482,20.3349609 90.8955611,20.3349609 C91.9691342,20.3349609 92.759084,20.0638048 93.2654341,19.5214844 C93.7717843,18.979164 94.0249556,18.096523 94.0249556,16.8735352 L94.0249556,11.8930664 L94.8384322,11.8930664 L94.8384322,20.9160156 L94.1411666,20.9160156 L93.9917525,19.6708984 L93.9419478,19.6708984 C93.3553563,20.6116583 92.3122353,21.0820312 90.8125533,21.0820312 C88.7594831,21.0820312 87.7329634,19.9835722 87.7329634,17.7866211 L87.7329634,11.8930664 L88.54644,11.8930664 Z M108.7546,20.9160156 L108.7546,14.9975586 C108.7546,14.1176714 108.583052,13.4757507 108.239951,13.0717773 C107.896851,12.667804 107.37114,12.4658203 106.662803,12.4658203 C105.738644,12.4658203 105.05522,12.7203751 104.61251,13.2294922 C104.169799,13.7386093 103.948447,14.5382432 103.948447,15.628418 L103.948447,20.9160156 L103.110068,20.9160156 L103.110068,14.7485352 C103.110068,13.2267177 102.41281,12.4658203 101.018272,12.4658203 C100.071978,12.4658203 99.3830198,12.7411268 98.951377,13.291748 C98.5197342,13.8423693 98.303916,14.7236268 98.303916,15.9355469 L98.303916,20.9160156 L97.4821387,20.9160156 L97.4821387,11.8930664 L98.1628028,11.8930664 L98.3371192,13.1298828 L98.3869238,13.1298828 C98.6359485,12.6816384 98.9901117,12.3343925 99.4494238,12.0881348 C99.908736,11.841877 100.415079,11.71875 100.968467,11.71875 C102.390674,11.71875 103.303751,12.2527616 103.707725,13.3208008 L103.740928,13.3208008 C104.034223,12.8061498 104.428507,12.4104832 104.923789,12.1337891 C105.419072,11.857095 105.982136,11.71875 106.612998,11.71875 C107.598029,11.71875 108.336791,11.9816054 108.829307,12.5073242 C109.321822,13.033043 109.568076,13.8686466 109.568076,15.0141602 L109.568076,20.9160156 L108.7546,20.9160156 Z" id="Grupo-Caelum" fill="#353535" sketch:type="MSShapeGroup"></path>
    </g>
</svg>